<svg width="147" height="141" viewBox="0 0 147 141" fill="none" xmlns="http://www.w3.org/2000/svg">
<path d="M59.5109 0V6.6975H45.5V13.4391H59.5109V20.1366H66.4934V13.4391H80.5044V20.1366H87.4869V13.4391H101.498V20.1366H108.526V13.4391H115.509V26.8781H122.491V20.1366H129.52V134.303H52.5284V141H136.502V134.303H143.485V20.1366H136.502V13.4391H129.52V6.6975H108.526V0H101.498V6.6975H87.4869V0H80.5044V6.6975H66.4934V0H59.5109Z" fill="#5E2C00"/>
<path d="M115.51 26.8779H108.527V40.2729H115.51V26.8779Z" fill="#5E2C00"/>
<path d="M101.498 53.712H122.491V47.0145H108.526V40.2729H101.498V53.712Z" fill="#5E2C00"/>
<path d="M94.5167 67.1515H87.4883V80.5905H94.5167V73.849H122.493V67.1515H101.499V53.7124H94.5167V67.1515Z" fill="#5E2C00"/>
<path d="M80.5059 93.9853H122.493V87.2878H87.4884V80.5903H80.5059V93.9853Z" fill="#5E2C00"/>
<path d="M80.504 53.7124H73.5215V60.454H80.504V53.7124Z" fill="#5E2C00"/>
<path d="M80.504 40.2729H73.5215V47.0145H80.504V40.2729Z" fill="#5E2C00"/>
<path d="M122.492 107.424H59.5117V114.166H122.492V107.424Z" fill="#5E2C00"/>
<path d="M73.5227 60.4536H52.5293V67.1511H73.5227V60.4536Z" fill="#5E2C00"/>
<path d="M59.5118 40.2729H52.5293V47.0145H59.5118V40.2729Z" fill="#5E2C00"/>
<path d="M52.5289 100.727H80.5048V93.9854H10.4961V100.727H45.5005V134.303H52.5289V100.727Z" fill="#5E2C00"/>
<path d="M52.5284 53.7124H45.5V60.454H52.5284V53.7124Z" fill="#5E2C00"/>
<path d="M45.5001 13.439H38.5176V26.878H45.5001V13.439Z" fill="#5E2C00"/>
<path d="M38.5187 26.8779H31.4902V40.2729H38.5187V26.8779Z" fill="#5E2C00"/>
<path d="M31.4903 40.2729H24.5078V53.712H31.4903V40.2729Z" fill="#5E2C00"/>
<path d="M24.5079 53.7124H17.5254V67.1515H24.5079V53.7124Z" fill="#5E2C00"/>
<path d="M17.5245 67.1514H10.4961V80.5904H17.5245V67.1514Z" fill="#5E2C00"/>
<path d="M10.4962 80.5903H3.51367V93.9853H10.4962V80.5903Z" fill="#5E2C00"/>
</svg>
