<svg width="173" height="173" viewBox="0 0 173 173" fill="none" xmlns="http://www.w3.org/2000/svg">
<path d="M135.913 123.587V82.3912H144.184V65.9021H135.913V49.4131H127.695V123.587H135.913Z" fill="#5E2C00"/>
<path d="M127.695 123.587H119.424V131.804H127.695V123.587Z" fill="#5E2C00"/>
<path d="M127.695 41.1958H119.424V49.4133H127.695V41.1958Z" fill="#5E2C00"/>
<path d="M119.423 65.9023H111.205V107.098H119.423V65.9023Z" fill="#5E2C00"/>
<path d="M102.987 173V164.783H111.205V156.511H119.422V148.293H45.3027V156.511H53.5202V164.783H61.7918V173H102.987Z" fill="#5E2C00"/>
<path d="M119.422 131.804H45.3027V140.022H119.422V131.804Z" fill="#5E2C00"/>
<path d="M111.206 107.098H102.988V115.315H111.206V107.098Z" fill="#5E2C00"/>
<path d="M111.206 57.6846H102.988V65.9021H111.206V57.6846Z" fill="#5E2C00"/>
<path d="M102.988 74.1196H94.7168V98.8803H102.988V74.1196Z" fill="#5E2C00"/>
<path d="M102.988 49.4131H78.2812V57.6846H102.988V49.4131Z" fill="#5E2C00"/>
<path d="M102.989 115.315H61.793V123.587H102.989V115.315Z" fill="#5E2C00"/>
<path d="M94.7163 65.9023H78.2812V74.1198H94.7163V65.9023Z" fill="#5E2C00"/>
<path d="M94.7163 98.8804H70.0098V107.098H94.7163V98.8804Z" fill="#5E2C00"/>
<path d="M86.4988 82.3911H78.2812V90.6086H86.4988V82.3911Z" fill="#5E2C00"/>
<path d="M61.7931 107.098H53.5215V115.315H61.7931V107.098Z" fill="#5E2C00"/>
<path d="M119.422 32.978H45.3027V41.1955H119.422V32.978Z" fill="#5E2C00"/>
<path d="M61.7918 0V8.2175H53.5202V16.4891H45.3027V24.7066H119.422V16.4891H111.205V8.2175H102.987V0H61.7918Z" fill="#5E2C00"/>
<path d="M45.3034 123.587H37.0859V131.804H45.3034V123.587Z" fill="#5E2C00"/>
<path d="M45.3034 41.1958H37.0859V49.4133H45.3034V41.1958Z" fill="#5E2C00"/>
<path d="M37.086 49.4131H28.8145V123.587H37.086V49.4131Z" fill="#5E2C00"/>
</svg>
