<svg width="211" height="183" viewBox="0 0 211 183" fill="none" xmlns="http://www.w3.org/2000/svg">
<path d="M190.89 26.1348H180.867V121.981H190.89V26.1348Z" fill="#5E2C00"/>
<path d="M180.868 121.981H170.779V139.423H180.868V121.981Z" fill="#5E2C00"/>
<path d="M170.778 139.423H160.756V148.173H170.778V139.423Z" fill="#5E2C00"/>
<path d="M180.867 17.4424H160.756V26.1349H180.867V17.4424Z" fill="#5E2C00"/>
<path d="M160.757 148.173H150.734V156.865H160.757V148.173Z" fill="#5E2C00"/>
<path d="M150.733 156.865H140.645V165.558H150.733V156.865Z" fill="#5E2C00"/>
<path d="M150.733 121.981H140.645V130.731H150.733V121.981Z" fill="#5E2C00"/>
<path d="M150.733 43.5768H140.644V34.8843H70.3551V43.5768H60.2666V52.2693H50.2441V121.981H60.2666V87.1536H70.3551V78.4612H140.644V87.1536H150.733V121.981H160.755V52.2693H150.733V43.5768Z" fill="#5E2C00"/>
<path d="M160.755 8.74951H140.645V17.442H160.755V8.74951Z" fill="#5E2C00"/>
<path d="M140.646 130.73H130.623V139.423H140.646V130.73Z" fill="#5E2C00"/>
<path d="M140.646 95.8462H130.623V113.288H140.646V95.8462Z" fill="#5E2C00"/>
<path d="M140.645 165.558H120.6V174.307H140.645V165.558Z" fill="#5E2C00"/>
<path d="M130.623 139.423H80.3789V148.173H130.623V139.423Z" fill="#5E2C00"/>
<path d="M120.6 174.308H90.4004V183H120.6V174.308Z" fill="#5E2C00"/>
<path d="M120.6 121.981H90.4004V130.731H120.6V121.981Z" fill="#5E2C00"/>
<path d="M90.4005 165.558H70.3555V174.307H90.4005V165.558Z" fill="#5E2C00"/>
<path d="M140.645 0H70.3555V8.74969H140.645V0Z" fill="#5E2C00"/>
<path d="M80.378 130.73H70.3555V139.423H80.378V130.73Z" fill="#5E2C00"/>
<path d="M80.378 95.8462H70.3555V113.288H80.378V95.8462Z" fill="#5E2C00"/>
<path d="M70.356 156.865H60.2676V165.558H70.356V156.865Z" fill="#5E2C00"/>
<path d="M70.356 121.981H60.2676V130.731H70.356V121.981Z" fill="#5E2C00"/>
<path d="M70.3551 8.74951H50.2441V17.442H70.3551V8.74951Z" fill="#5E2C00"/>
<path d="M60.2666 148.173H50.2441V156.865H60.2666V148.173Z" fill="#5E2C00"/>
<path d="M50.2447 139.423H40.1562V148.173H50.2447V139.423Z" fill="#5E2C00"/>
<path d="M50.2457 17.4424H30.1348V26.1349H50.2457V17.4424Z" fill="#5E2C00"/>
<path d="M40.1573 121.981H30.1348V139.423H40.1573V121.981Z" fill="#5E2C00"/>
<path d="M30.1338 26.1348H20.1113V121.981H30.1338V26.1348Z" fill="#5E2C00"/>
</svg>
